<svg viewBox="0 0 261 168" fill="none" xmlns="http://www.w3.org/2000/svg">
<path d="M159.577 87.8998L157.519 85.7171L74.5813 11.9038C71.7573 9.07851 69.08 7.93715 66.4506 7.94647V7.91849H15.752V7.9278C18.3226 7.97313 20.944 9.14517 23.7 11.9038L99.5146 87.7158L99.3293 87.8998C115.028 107.196 113.899 135.629 95.924 153.605C86.3333 163.194 73.7613 167.99 61.1906 167.993H119.5V167.902C132.709 168.417 146.088 163.688 156.172 153.605C174.145 135.629 175.276 107.196 159.577 87.8998Z" fill="#2CC295"/>
<path d="M95.924 153.605C113.899 135.629 115.028 107.196 99.3293 87.8998L99.5146 87.7158L23.7 11.9038C20.944 9.14517 18.3226 7.97313 15.7519 7.9278C12.3666 7.86513 9.06397 9.76915 5.64263 12.6265C3.61197 14.3251 -3.87605 21.8731 2.55728 33.7171L30.4773 80.5331C29.0853 81.6505 27.736 82.8372 26.4453 84.1265C7.25997 103.31 7.25997 134.417 26.4453 153.605C35.592 162.752 47.452 167.485 59.4346 167.91C60.0173 167.929 60.5973 167.993 61.1786 167.993H61.1906C73.7613 167.99 86.3333 163.194 95.924 153.605Z" fill="#17876E"/>
<path d="M141.013 82.2238L110.311 82.2598L97.3047 69.6851H126.402L141.013 82.2238Z" fill="#042222"/>
<path d="M157.427 138.304C157.427 143.74 153.023 148.144 147.587 148.144H135.412C129.976 148.144 125.573 143.74 125.573 138.304C125.573 132.869 129.976 128.464 135.412 128.464H147.587C153.023 128.464 157.427 132.869 157.427 138.304Z" fill="#17876E"/>
<path d="M212.729 11.6959C204.793 11.6959 198.246 15.1065 193.275 21.8372C183.105 35.6025 180.774 62.0291 187.735 84.6811C195.93 111.352 175.846 121.108 162.554 127.564C155.113 131.178 148.085 134.592 147.565 139.081C147.215 142.082 148.147 143.52 148.878 144.34C151.03 146.757 155.851 148.144 162.106 148.144H162.111C182.382 148.144 214.006 134.236 232.691 108.457C249.153 85.7412 253.822 56.9945 244.59 35.2225C238.974 21.9798 229.231 13.7425 217.154 12.0185C215.639 11.8052 214.151 11.6959 212.729 11.6959ZM162.111 159.843H162.103C152.235 159.843 144.638 157.17 140.142 152.12C136.745 148.305 135.294 143.33 135.945 137.73C137.209 126.872 147.497 121.876 157.443 117.044C172.549 109.705 181.553 104.384 176.554 88.1158C168.461 61.7812 171.469 31.6678 183.867 14.8838C192.274 3.50381 204.545 -1.60416 218.803 0.441177C234.862 2.72784 248.186 13.7425 255.358 30.6545C266.159 56.1252 260.979 89.3558 242.163 115.319C220.978 144.548 185.858 159.843 162.111 159.843Z" fill="#06302C"/>
</svg>
