<svg width="325" height="393" viewBox="0 0 325 393" fill="none" xmlns="http://www.w3.org/2000/svg">
<path d="M200.152 283.762L199.864 283.776C189.803 283.932 181.688 292.126 181.688 302.226V374.536C181.688 384.732 189.956 393 200.152 393H211.75V283.762H200.152Z" fill="#021A1A"/>
<path d="M211.75 393H223.346C233.542 393 241.81 384.732 241.81 374.536V302.226C241.81 292.028 233.542 283.762 223.346 283.762H211.75V393Z" fill="#030F0F"/>
<path d="M211.749 283.762V224.55H172.61C144.85 224.55 122.267 201.965 122.267 174.205V11.8842C122.267 5.31906 116.946 0 110.383 0C103.82 0 98.499 5.31906 98.499 11.8842V174.205C98.499 215.071 131.746 248.318 172.61 248.318H199.863V283.777L200.152 283.762H211.749Z" fill="#F1F7F7"/>
<path d="M313.114 0C306.551 0 301.23 5.31906 301.23 11.8842V174.205C301.23 201.965 278.647 224.55 250.887 224.55H211.75V283.762H223.346L223.634 283.777V248.318H250.887C291.753 248.318 325 215.071 325 174.205V11.8842C325 5.31906 319.679 0 313.114 0Z" fill="#AACBC4"/>
<path d="M211.75 347.829L181.688 323.929V303.06L211.75 326.959V347.829Z" fill="#042222"/>
<path d="M241.81 371.728L211.75 347.828V326.959L241.81 350.858V371.728Z" fill="#021A1A"/>
<path d="M241.81 307.704L211.75 283.804V283.762H223.346L223.634 283.776V283.763C233.697 283.917 241.81 292.124 241.81 302.226V307.704Z" fill="#021A1A"/>
<path d="M170.722 133.635C175.751 123.09 179.243 111.936 181.072 100.533C181.757 96.26 180.914 92.0485 178.89 88.5136L153.282 103.175L170.722 133.635Z" fill="#085543"/>
<path d="M140.804 110.316L119.101 72.4066C99.9229 73.355 80.544 78.761 62.5753 89.0477C44.6064 99.3345 30.133 113.308 19.6035 129.366L41.3061 167.276L140.804 110.316Z" fill="#03624C"/>
<path d="M41.3057 167.276L19.6031 129.366C16.5223 134.064 13.7822 138.941 11.3896 143.957L28.8276 174.42L41.3057 167.276Z" fill="#AACBC4"/>
<path d="M178.89 88.5133C176.866 84.9784 173.664 82.1202 169.632 80.5469C158.873 76.3501 147.485 73.7136 135.845 72.7116L153.283 103.174L178.89 88.5133Z" fill="#03624C"/>
<path d="M153.281 103.174L135.843 72.7117C130.306 72.2347 124.714 72.1293 119.101 72.4066L140.804 110.316L153.281 103.174Z" fill="#AACBC4"/>
<path d="M41.3066 167.276L63.009 205.186C82.1883 204.237 101.567 198.831 119.536 188.545C137.504 178.26 151.978 164.285 162.507 148.228L140.804 110.316L41.3066 167.276Z" fill="#085543"/>
<path d="M153.281 103.175L140.804 110.317L162.507 148.228C165.587 143.528 168.327 138.651 170.721 133.635L153.281 103.175Z" fill="#17876E"/>
<path d="M3.22168 189.079C5.24538 192.614 8.44825 195.474 12.481 197.046C23.2394 201.243 34.6277 203.879 46.2672 204.881L28.8284 174.42L3.22168 189.079Z" fill="#085543"/>
<path d="M28.8271 174.42L46.266 204.881C51.803 205.358 57.3963 205.465 63.0076 205.186L41.3053 167.276L28.8271 174.42Z" fill="#17876E"/>
<path d="M11.3902 143.957C6.36088 154.503 2.86757 165.659 1.03911 177.06C0.353756 181.335 1.19791 185.544 3.22143 189.079L28.8281 174.42L11.3902 143.957Z" fill="#03624C"/>
</svg>
