<svg width="1440" height="149" viewBox="0 0 1440 149" fill="none" xmlns="http://www.w3.org/2000/svg">
<mask id="mask0_45_4" style="mask-type:alpha" maskUnits="userSpaceOnUse" x="0" y="0" width="895" height="149">
<rect width="895" height="149" fill="#D9D9D9"/>
</mask>
<g mask="url(#mask0_45_4)">
<path d="M-25.5229 94.312C-25.5229 94.312 -21.4651 106.932 -16.9235 119.452C-14.4536 126.308 -11.8443 133.115 -9.98386 137.884H850.872C852.732 133.115 855.341 126.308 857.81 119.452C862.353 106.932 866.41 94.312 866.41 94.312C866.41 94.312 870.5 81.6934 874.104 68.9907C877.738 56.2907 880.888 43.5227 880.888 43.5227C880.888 43.5227 874.794 55.1854 868.306 66.5614C861.838 77.9587 854.988 89.0587 854.988 89.0587C854.988 89.0587 851.742 94.3427 847.368 101.167L846.437 87.376L843.209 39.5334L833.89 86.5707L831.146 100.42C829.388 95.1427 828.226 91.3227 828.226 91.3227C828.226 91.3227 824.932 80.6174 822.294 69.6267C819.618 58.6587 817.624 47.44 817.624 47.44C817.624 47.44 816.473 58.7627 816.038 70.24C815.56 81.7 815.806 93.2734 815.806 93.2734C815.806 93.2734 815.93 100.24 816.424 108.789C815.634 106.616 814.832 104.369 814.046 102.111C809.584 89.3907 805.673 76.412 805.673 76.412C805.673 76.412 801.73 63.4534 798.352 50.2587C794.941 37.084 792.108 23.6961 792.108 23.6961C792.108 23.6961 791.808 37.368 792.124 51.1134C792.402 64.8494 793.298 78.6347 793.298 78.6347C793.298 78.6347 794.157 92.412 795.638 106.211C795.954 109.231 796.301 112.241 796.649 115.116C795.833 111.015 794.913 106.399 793.992 101.769C791.109 88.0934 788.228 74.4174 788.228 74.4174C788.228 74.4174 785.196 60.7907 782.165 47.1641C778.986 33.5894 775.809 20.0147 775.809 20.0147C775.809 20.0147 775.864 33.9387 775.918 47.8641C775.818 61.772 775.718 75.6787 775.718 75.6787C775.718 75.6787 775.464 89.5667 775.209 103.455C775.034 109.361 774.86 115.257 774.717 120.092H774.613C774.645 117.481 774.665 114.74 774.656 111.995C774.649 99.7894 774.124 87.6654 774.124 87.6654C774.124 87.6654 773.629 75.5307 772.622 63.5001C771.646 51.4561 770.164 39.5361 770.164 39.5361C770.164 39.5361 768.501 51.4427 766.342 63.1961C764.214 74.9641 761.6 86.5614 761.6 86.5614C761.6 86.5614 759.012 98.176 755.949 109.599C755.904 109.771 755.858 109.94 755.812 110.111C755.982 107.303 756.11 104.384 756.18 101.467C756.253 94.3094 755.996 87.216 755.534 81.9294C755.372 79.288 755.05 77.0947 754.91 75.564C754.745 74.0347 754.65 73.16 754.65 73.16C754.65 73.16 754.525 72.2894 754.306 70.7641C754.061 69.244 753.834 67.068 753.34 64.4827C752.485 59.3014 750.996 52.4747 749.213 45.7867C747.332 39.1094 745.161 32.5814 743.286 27.7934C742.416 25.3814 741.509 23.432 740.962 22.0467C740.389 20.6707 740.061 19.884 740.061 19.884C740.061 19.884 740.2 20.7254 740.444 22.1987C740.66 23.6761 741.09 25.7494 741.384 28.2827C742.105 33.3187 742.708 40.0574 743.001 46.7507C743.197 53.464 743.086 60.1227 742.748 65.088C742.646 67.568 742.378 69.6321 742.278 71.0694C742.15 72.5067 742.078 73.328 742.078 73.328C742.078 73.328 741.976 74.1467 741.798 75.58C741.593 77.012 741.425 79.0547 741.004 81.4867C740.533 84.7334 739.794 88.6867 738.905 92.812C735.893 84.8334 733.826 78.572 733.826 78.572C733.826 78.572 729.529 65.7494 726.236 52.4987C722.884 39.2814 720.574 25.7041 720.574 25.7041C720.574 25.7041 719.737 39.432 720.002 53.316C720.202 67.1814 721.516 81.124 721.516 81.124C721.516 81.124 722.493 92.0494 724.365 104.215C724.262 104.061 724.158 103.916 724.056 103.763C721.27 99.4107 718.67 94.8547 716.922 91.316C715.16 87.7854 714.084 85.3507 714.084 85.3507C714.084 85.3507 713.016 82.932 711.572 79.1947C710.485 76.4147 709.286 72.8734 708.164 69.08C708.202 68.2174 708.241 67.3174 708.278 66.34C708.518 60.4294 708.494 52.556 708.166 44.7467C707.744 36.9267 707.018 29.1787 706.221 23.412C705.888 20.5254 705.429 18.1387 705.193 16.4654C704.932 14.7961 704.782 13.8414 704.782 13.8414C704.782 13.8414 704.736 14.8081 704.654 16.4974C704.546 18.1867 704.514 20.5907 704.257 23.472C703.876 29.2347 703.025 36.872 701.888 44.416C700.656 51.9587 699.142 59.3987 697.766 64.9107C696.408 70.424 695.378 74.0467 695.378 74.0467C695.378 74.0467 694.345 77.6827 692.614 83.0427C692.449 83.56 692.24 84.1574 692.058 84.7041C691.749 82.8401 691.542 81.7347 691.542 81.7347C691.542 81.7347 689.544 70.7027 686.341 60.1614C683.206 49.5734 678.926 39.5974 678.926 39.5974C678.926 39.5974 680.16 50.4067 680.124 61.0894C680.156 69.8454 679.372 78.4254 679.084 81.2654C677.686 73.6107 676.75 67.9574 676.75 67.9574C676.75 67.9574 674.42 54.056 672.578 40.0214C670.708 26 669.332 11.86 669.332 11.86C669.332 11.86 668.89 15.3814 668.289 20.6774C669.062 13.248 669.73 8.0094 669.73 8.0094C669.73 8.0094 664.669 22.9467 660.446 38.24C656.173 53.5054 652.757 69.0854 652.757 69.0854C652.757 69.0854 649.422 84.0534 646.852 99.5574C647.448 84.2267 647.197 70.7107 647.197 70.7107C647.197 70.7107 646.985 52.8387 645.457 35.152C644.046 17.4427 641.338 3.05176e-05 641.338 3.05176e-05C641.338 3.05176e-05 640.905 17.6587 639.17 35.1147C637.552 52.5947 634.658 69.7934 634.658 69.7934C634.658 69.7934 633.425 77.4147 631.421 87.4627C630.388 83.8507 629.493 80.428 628.834 77.5094C628.145 74.8 627.773 72.508 627.414 70.9107C627.086 69.3094 626.9 68.3947 626.9 68.3947C626.9 68.3947 626.744 67.4734 626.473 65.8627C626.232 64.2494 625.746 61.9467 625.41 59.1574C624.588 53.588 623.868 46.092 623.486 38.5147C623.214 30.9494 623.285 23.312 623.641 17.5827C623.741 14.708 624.037 12.336 624.146 10.656C624.286 8.97868 624.365 8.02138 624.365 8.02138C624.365 8.02138 624.093 8.94141 623.616 10.5534C623.168 12.1721 622.388 14.4654 621.701 17.2734C620.174 22.864 618.522 30.4361 617.212 38.1321C616.01 45.8294 615.153 53.6401 614.809 59.5347C614.561 62.4827 614.562 64.9414 614.468 66.6707C614.402 68.4001 614.366 69.388 614.366 69.388C614.366 69.388 614.362 70.3747 614.357 72.1041C614.381 73.8307 614.278 76.3187 614.406 79.288C614.416 79.8694 614.434 80.4854 614.453 81.1041C614.345 80.5174 614.232 79.9041 614.104 79.2374C613.341 75.3321 612.162 70.1801 610.744 65.1334C609.341 60.0814 607.686 55.1427 606.317 51.5041C604.977 47.8587 603.977 45.4867 603.977 45.4867C603.977 45.4867 604.932 55.7774 604.505 65.9067C604.341 70.9707 603.93 75.9827 603.506 79.7107C603.274 81.68 603.06 83.2787 602.906 84.364C602.036 78.364 601.446 74.3014 601.446 74.3014L592.672 13.8227L589.569 63.784C589.133 61.6827 588.668 59.5174 588.18 57.3574C585.556 45.3587 582.277 33.6054 582.277 33.6054C582.277 33.6054 582.442 45.8134 581.92 57.9267C581.477 70.0494 580.372 82.0467 580.372 82.0467C580.372 82.0467 580.149 84.6214 579.745 88.54C577.173 80.5614 575.492 73.8494 575.492 73.8494C575.492 73.8494 572.622 62.6787 570.94 51.0947C569.185 39.5467 568.674 27.6934 568.674 27.6934C568.674 27.6934 566.044 39.2387 564.654 51.172C563.444 60.9987 563.102 70.988 563.02 74.1787C563.008 73.1827 562.988 72.22 562.952 71.3427C562.802 67.4227 562.578 64.844 562.578 64.844C562.578 64.844 561.734 54.4454 559.2 44.62C557.921 39.7027 556.401 34.9227 555.057 31.4294C553.728 27.9321 552.737 25.6734 552.737 25.6734C552.737 25.6734 553.698 35.5707 552.94 45.192C552.55 50.0107 551.917 54.7374 551.241 58.2321C550.578 61.7267 550.033 64.0067 550.033 64.0067C550.033 64.0067 548.013 72.5934 544.644 80.772C542.249 73.4547 540.397 66.744 540.397 66.744C540.397 66.744 537.998 58.1707 536.098 49.3747C534.168 40.6 532.752 31.6267 532.752 31.6267C532.752 31.6267 531.021 40.5307 529.817 49.62C528.58 58.6907 527.88 67.9174 527.88 67.9174C527.88 67.9174 527.845 68.3534 527.79 69.0987C526.922 66.2481 526.425 64.456 526.425 64.456C526.425 64.456 522.96 52.2454 520.833 39.5507C518.628 26.8934 517.833 13.8814 517.833 13.8814C517.833 13.8814 515.478 26.68 514.554 39.8414C513.544 52.9707 513.992 66.32 513.992 66.32C513.992 66.32 514.014 67.1494 514.076 68.5987C513.129 64.1147 511.601 57.2014 509.824 50.36C506.884 38.8641 503.273 27.6654 503.273 27.6654C503.273 27.6654 503.789 39.4334 503.582 51.108C503.42 62.796 502.548 74.3534 502.548 74.3534C502.548 74.3534 501.717 85.9267 500.194 97.3254C500.145 97.704 500.093 98.0814 500.044 98.4587C499.149 95.4014 498.232 92.1054 497.388 88.7707C494.109 76.0961 491.93 63.0334 491.93 63.0334C491.93 63.0334 489.688 50.0014 488.589 36.68C487.421 23.384 487.434 9.88538 487.434 9.88538C487.434 9.88538 484.293 22.9934 482.306 36.4707C480.249 49.9174 479.372 63.6427 479.372 63.6427C479.372 63.6427 478.834 71.4187 478.681 81.1854C478.153 79.056 477.849 77.756 477.849 77.756C477.849 77.756 475.05 65.988 473.068 53.9387C471.036 41.9147 469.844 29.6587 469.844 29.6587C469.844 29.6587 467.889 41.8001 466.785 54.1654C465.63 66.5094 465.341 79.0227 465.341 79.0227C465.341 79.0227 465.29 80.9054 465.258 83.928C464.744 81.7947 464.226 79.7681 463.726 78.0307C462.46 73.576 461.498 70.6667 461.498 70.6667C461.498 70.6667 460.534 67.7427 458.92 63.4587C457.318 59.168 454.897 53.5801 452.248 48.1694C449.517 42.7814 446.564 37.5787 444.157 33.8134C441.762 30.0414 440.073 27.6187 440.073 27.6187C440.073 27.6187 444.102 38.8027 446.305 50.216C447.396 55.932 448.212 61.6347 448.601 65.9214C449.005 70.2054 449.153 73.0454 449.153 73.0454C449.153 73.0454 449.269 75.2987 449.326 78.772L433.9 43.524L437.498 82.7027L439.384 103.233C439.136 102.664 438.881 102.107 438.637 101.532C436.178 95.4681 433.99 89.2214 432.614 84.4387C431.853 82.0614 431.413 80.036 431.012 78.6307C430.638 77.2174 430.424 76.4107 430.424 76.4107C430.424 76.4107 430.242 75.5974 429.924 74.1734C429.633 72.7454 429.082 70.7121 428.66 68.2374C427.666 63.3014 426.705 56.632 426.069 49.8614C425.54 43.1014 425.342 36.2507 425.489 31.0987C425.488 28.5147 425.693 26.3787 425.742 24.8654C425.82 23.3561 425.865 22.4921 425.865 22.4921C425.865 22.4921 425.626 23.3214 425.209 24.7734C424.822 26.232 424.129 28.2987 423.544 30.8321C422.221 35.8747 420.836 42.7134 419.785 49.672C419.645 50.7094 419.528 51.7427 419.402 52.7787C418.825 48.88 418.094 44.6934 417.14 40.5387C415.373 33.0467 413.222 25.7 410.929 20.4547C409.958 17.7827 408.79 15.6894 408.11 14.1907C407.396 12.708 406.988 11.86 406.988 11.86C406.988 11.86 407.212 12.776 407.605 14.3787C407.96 15.9894 408.652 18.2174 409.044 21.0067C410.176 26.4827 410.73 33.9307 410.898 41.2867C411.022 48.668 410.448 56.0227 409.921 61.496C409.297 66.98 408.792 70.6027 408.792 70.6027C408.792 70.6027 408.645 71.5107 408.392 73.0987C408.109 74.6841 407.834 76.9454 407.281 79.6494C406.301 85.06 404.746 92.228 402.936 99.3147C402.413 101.369 401.862 103.408 401.305 105.403L403.389 82.7027L406.988 43.524L391.562 78.772C391.618 75.2987 391.734 73.0454 391.734 73.0454C391.734 73.0454 391.882 70.2054 392.286 65.9214C392.676 61.6347 393.492 55.932 394.582 50.216C396.785 38.8027 400.816 27.6187 400.816 27.6187C400.816 27.6187 399.125 30.0414 396.73 33.8134C394.324 37.5787 391.37 42.7814 388.64 48.1694C385.99 53.5801 383.569 59.168 381.968 63.4587C380.353 67.7427 379.389 70.6667 379.389 70.6667C379.389 70.6667 378.428 73.576 377.161 78.0307C376.662 79.7681 376.144 81.7947 375.629 83.928C375.597 80.9054 375.546 79.0227 375.546 79.0227C375.546 79.0227 375.257 66.5094 374.102 54.1654C372.998 41.8001 371.044 29.6587 371.044 29.6587C371.044 29.6587 369.852 41.9147 367.82 53.9387C365.837 65.988 363.038 77.756 363.038 77.756C363.038 77.756 362.734 79.056 362.206 81.1854C362.053 71.4187 361.516 63.6427 361.516 63.6427C361.516 63.6427 360.638 49.9174 358.581 36.4707C356.594 22.9934 353.453 9.88538 353.453 9.88538C353.453 9.88538 353.466 23.384 352.298 36.68C351.2 50.0014 348.957 63.0334 348.957 63.0334C348.957 63.0334 346.778 76.0961 343.5 88.7707C342.656 92.1054 341.738 95.4014 340.844 98.4587C340.794 98.0814 340.742 97.704 340.693 97.3254C339.17 85.9267 338.34 74.3534 338.34 74.3534C338.34 74.3534 337.468 62.796 337.305 51.108C337.098 39.4334 337.614 27.6654 337.614 27.6654C337.614 27.6654 334.004 38.8641 331.064 50.36C329.286 57.2014 327.758 64.1161 326.812 68.5987C326.873 67.1494 326.896 66.32 326.896 66.32C326.896 66.32 327.344 52.9707 326.333 39.8414C325.409 26.68 323.054 13.8814 323.054 13.8814C323.054 13.8814 322.26 26.8934 320.054 39.5507C317.929 52.2454 314.462 64.456 314.462 64.456C314.462 64.456 313.965 66.2481 313.097 69.0987C313.042 68.3534 313.008 67.9174 313.008 67.9174C313.008 67.9174 312.308 58.6907 311.07 49.62C309.866 40.5307 308.136 31.6267 308.136 31.6267C308.136 31.6267 306.72 40.6 304.789 49.3747C302.889 58.1707 300.49 66.744 300.49 66.744C300.49 66.744 298.638 73.4547 296.244 80.772C292.874 72.5934 290.854 64.0067 290.854 64.0067C290.854 64.0067 290.309 61.7267 289.646 58.2321C288.97 54.7374 288.337 50.0107 287.948 45.192C287.189 35.5707 288.15 25.6734 288.15 25.6734C288.15 25.6734 287.16 27.9321 285.83 31.4294C284.486 34.9227 282.966 39.7027 281.688 44.62C279.153 54.4454 278.309 64.844 278.309 64.844C278.309 64.844 278.086 67.4227 277.936 71.3427C277.9 72.22 277.88 73.1827 277.868 74.1787C277.785 70.988 277.444 60.9987 276.233 51.172C274.844 39.2387 272.213 27.6934 272.213 27.6934C272.213 27.6934 271.702 39.5467 269.948 51.0947C268.265 62.6787 265.396 73.8494 265.396 73.8494C265.396 73.8494 263.714 80.5614 261.142 88.54C260.738 84.6214 260.516 82.0467 260.516 82.0467C260.516 82.0467 259.41 70.0494 258.968 57.9267C258.445 45.8134 258.61 33.6054 258.61 33.6054C258.61 33.6054 255.332 45.3587 252.708 57.3574C252.22 59.5174 251.754 61.6827 251.318 63.7827L248.217 13.8227L239.441 74.3014C239.441 74.3014 238.852 78.364 237.981 84.3627C237.828 83.2787 237.613 81.68 237.381 79.7107C236.957 75.9827 236.546 70.9707 236.382 65.9067C235.956 55.7774 236.91 45.4867 236.91 45.4867C236.91 45.4867 235.91 47.8587 234.57 51.5041C233.201 55.1427 231.546 60.0814 230.144 65.1334C228.725 70.1801 227.546 75.3321 226.784 79.2374C226.656 79.9041 226.542 80.5161 226.434 81.1027C226.453 80.4841 226.472 79.8694 226.481 79.288C226.609 76.3187 226.506 73.8307 226.53 72.1041C226.525 70.3747 226.521 69.388 226.521 69.388C226.521 69.388 226.485 68.4001 226.42 66.6707C226.325 64.9414 226.326 62.4827 226.078 59.5347C225.734 53.6401 224.877 45.8294 223.676 38.1321C222.365 30.4361 220.713 22.864 219.186 17.2734C218.5 14.4654 217.72 12.1721 217.272 10.5534C216.794 8.94141 216.522 8.02138 216.522 8.02138C216.522 8.02138 216.602 8.97868 216.741 10.656C216.85 12.336 217.146 14.708 217.246 17.5827C217.602 23.312 217.673 30.9494 217.401 38.5147C217.02 46.092 216.3 53.588 215.477 59.1574C215.141 61.9467 214.656 64.2494 214.414 65.8627C214.144 67.4734 213.989 68.3947 213.989 68.3947C213.989 68.3947 213.801 69.3094 213.473 70.9107C213.114 72.508 212.742 74.8 212.053 77.5094C211.394 80.428 210.5 83.8507 209.466 87.4614C207.462 77.4134 206.229 69.7934 206.229 69.7934C206.229 69.7934 203.336 52.5947 201.717 35.1147C199.982 17.6587 199.549 3.05176e-05 199.549 3.05176e-05C199.549 3.05176e-05 196.841 17.4427 195.43 35.152C193.902 52.8387 193.69 70.7107 193.69 70.7107C193.69 70.7107 193.44 84.2254 194.036 99.556C191.465 84.0534 188.13 69.0854 188.13 69.0854C188.13 69.0854 184.714 53.5054 180.442 38.24C176.218 22.9467 171.157 8.0094 171.157 8.0094C171.157 8.0094 171.825 13.2547 172.6 20.692C171.998 15.388 171.556 11.86 171.556 11.86C171.556 11.86 170.18 26 168.309 40.0214C166.468 54.056 164.137 67.9574 164.137 67.9574C164.137 67.9574 163.201 73.6094 161.804 81.264C161.516 78.424 160.732 69.8454 160.764 61.0894C160.728 50.4067 161.961 39.5974 161.961 39.5974C161.961 39.5974 157.681 49.5734 154.546 60.1614C151.344 70.7027 149.346 81.7347 149.346 81.7347C149.346 81.7347 149.138 82.8401 148.829 84.7041C148.648 84.1574 148.438 83.56 148.273 83.0427C146.542 77.6827 145.509 74.0467 145.509 74.0467C145.509 74.0467 144.48 70.424 143.121 64.9107C141.745 59.3987 140.232 51.9587 139 44.416C137.862 36.872 137.012 29.2347 136.63 23.472C136.373 20.5907 136.341 18.1867 136.233 16.4974C136.152 14.8081 136.105 13.8414 136.105 13.8414C136.105 13.8414 135.956 14.7961 135.694 16.4654C135.458 18.1387 135 20.5254 134.666 23.412C133.869 29.1787 133.144 36.9267 132.721 44.7467C132.393 52.556 132.369 60.4294 132.609 66.34C132.646 67.3174 132.685 68.2174 132.724 69.0787C131.601 72.872 130.402 76.4147 129.316 79.1947C127.872 82.932 126.804 85.3507 126.804 85.3507C126.804 85.3507 125.728 87.7854 123.965 91.316C122.217 94.8547 119.617 99.4107 116.832 103.763C116.729 103.915 116.625 104.061 116.522 104.213C118.394 92.0494 119.372 81.124 119.372 81.124C119.372 81.124 120.685 67.1814 120.885 53.316C121.152 39.432 120.313 25.7041 120.313 25.7041C120.313 25.7041 118.004 39.2814 114.652 52.4987C111.358 65.7494 107.061 78.572 107.061 78.572C107.061 78.572 104.994 84.8334 101.982 92.812C101.094 88.6867 100.354 84.7334 99.8837 81.4867C99.4624 79.0547 99.2944 77.012 99.0891 75.58C98.9104 74.1467 98.8091 73.328 98.8091 73.328C98.8091 73.328 98.7371 72.5067 98.6091 71.0694C98.5091 69.6321 98.2411 67.568 98.1397 65.088C97.8011 60.1227 97.6904 53.464 97.8864 46.7507C98.1797 40.0574 98.7824 33.3187 99.5037 28.2827C99.7971 25.7494 100.228 23.6761 100.444 22.1987C100.688 20.7254 100.826 19.884 100.826 19.884C100.826 19.884 100.498 20.6707 99.9251 22.0467C99.3784 23.432 98.4717 25.3814 97.6011 27.7934C95.7264 32.5814 93.5557 39.1094 91.6744 45.7867C89.8917 52.4747 88.4024 59.3014 87.5477 64.4827C87.0531 67.068 86.8264 69.244 86.5811 70.7641C86.3624 72.2894 86.2371 73.16 86.2371 73.16C86.2371 73.16 86.1424 74.0347 85.9771 75.564C85.8371 77.0947 85.5157 79.288 85.3531 81.9294C84.8917 87.216 84.6344 94.3094 84.7077 101.467C84.7771 104.384 84.9051 107.303 85.0757 110.111C85.0291 109.94 84.9837 109.771 84.9384 109.599C81.8757 98.176 79.2877 86.5614 79.2877 86.5614C79.2877 86.5614 76.6731 74.9641 74.5437 63.1961C72.3864 51.4427 70.7237 39.5361 70.7237 39.5361C70.7237 39.5361 69.2411 51.4561 68.2651 63.5001C67.2584 75.5307 66.7637 87.6654 66.7637 87.6654C66.7637 87.6654 66.2384 99.7894 66.2317 111.995C66.2237 114.74 66.2424 117.481 66.2744 120.092H65.7677L64.8344 78.7107L63.7184 28.0067L52.3264 77.428L44.8304 110.049C44.9731 108.776 45.1144 107.496 45.2491 106.211C46.7304 92.412 47.5891 78.6347 47.5891 78.6347C47.5891 78.6347 48.4851 64.8494 48.7637 51.1134C49.0797 37.368 48.7797 23.6961 48.7797 23.6961C48.7797 23.6961 45.9464 37.084 42.5357 50.2587C39.1571 63.4534 35.2144 76.412 35.2144 76.412C35.2144 76.412 31.3037 89.3907 26.8411 102.111C26.0557 104.369 25.2531 106.616 24.4637 108.789C24.9571 100.24 25.0811 93.2734 25.0811 93.2734C25.0811 93.2734 25.3277 81.7 24.8491 70.24C24.4144 58.7627 23.2637 47.44 23.2637 47.44C23.2637 47.44 21.2691 58.6587 18.5927 69.6267C15.9557 80.6174 12.6604 91.3227 12.6604 91.3227C12.6604 91.3227 11.4989 95.1414 9.74106 100.42L6.99733 86.5707L-2.32187 39.5334L-5.54947 87.376L-6.47974 101.167C-10.8547 94.3427 -14.1005 89.0587 -14.1005 89.0587C-14.1005 89.0587 -20.9516 77.9587 -27.4188 66.5614C-33.9068 55.1854 -40 43.5227 -40 43.5227C-40 43.5227 -36.8511 56.2907 -33.2161 68.9907C-29.612 81.6934 -25.5229 94.312 -25.5229 94.312Z" fill="#03624C"/>
</g>
<mask id="mask1_45_4" style="mask-type:alpha" maskUnits="userSpaceOnUse" x="747" y="0" width="933" height="138">
<path d="M761.666 94.312C761.666 94.312 765.776 106.932 770.377 119.452C772.879 126.308 775.523 133.115 777.407 137.884H1649.48C1651.36 133.115 1654.01 126.308 1656.51 119.452C1661.11 106.932 1665.22 94.312 1665.22 94.312C1665.22 94.312 1669.36 81.6934 1673.02 68.9907C1676.7 56.2907 1679.89 43.5227 1679.89 43.5227C1679.89 43.5227 1673.72 55.1854 1667.14 66.5614C1660.59 77.9587 1653.65 89.0587 1653.65 89.0587C1653.65 89.0587 1650.36 94.3427 1645.93 101.167L1644.99 87.376L1641.72 39.5334L1632.28 86.5707L1629.5 100.42C1627.72 95.1427 1626.54 91.3227 1626.54 91.3227C1626.54 91.3227 1623.2 80.6174 1620.53 69.6267C1617.82 58.6587 1615.8 47.44 1615.8 47.44C1615.8 47.44 1614.63 58.7627 1614.19 70.24C1613.71 81.7 1613.96 93.2734 1613.96 93.2734C1613.96 93.2734 1614.08 100.24 1614.58 108.789C1613.78 106.616 1612.97 104.369 1612.18 102.111C1607.65 89.3907 1603.69 76.412 1603.69 76.412C1603.69 76.412 1599.7 63.4534 1596.28 50.2587C1592.82 37.084 1589.95 23.6961 1589.95 23.6961C1589.95 23.6961 1589.65 37.368 1589.97 51.1134C1590.25 64.8494 1591.16 78.6347 1591.16 78.6347C1591.16 78.6347 1592.03 92.412 1593.53 106.211C1593.85 109.231 1594.2 112.241 1594.55 115.116C1593.72 111.015 1592.79 106.399 1591.86 101.769C1588.94 88.0934 1586.02 74.4174 1586.02 74.4174C1586.02 74.4174 1582.95 60.7907 1579.88 47.1641C1576.66 33.5894 1573.44 20.0147 1573.44 20.0147C1573.44 20.0147 1573.5 33.9387 1573.55 47.8641C1573.45 61.772 1573.35 75.6787 1573.35 75.6787C1573.35 75.6787 1573.09 89.5667 1572.83 103.455C1572.66 109.361 1572.48 115.257 1572.33 120.092H1572.23C1572.26 117.481 1572.28 114.74 1572.27 111.995C1572.26 99.7894 1571.73 87.6654 1571.73 87.6654C1571.73 87.6654 1571.23 75.5307 1570.21 63.5001C1569.22 51.4561 1567.72 39.5361 1567.72 39.5361C1567.72 39.5361 1566.04 51.4427 1563.85 63.1961C1561.69 74.9641 1559.05 86.5614 1559.05 86.5614C1559.05 86.5614 1556.42 98.176 1553.32 109.599C1553.28 109.771 1553.23 109.94 1553.18 110.111C1553.35 107.303 1553.48 104.384 1553.55 101.467C1553.63 94.3094 1553.37 87.216 1552.9 81.9294C1552.74 79.288 1552.41 77.0947 1552.27 75.564C1552.1 74.0347 1552.01 73.16 1552.01 73.16C1552.01 73.16 1551.88 72.2894 1551.66 70.7641C1551.41 69.244 1551.18 67.068 1550.68 64.4827C1549.81 59.3014 1548.3 52.4747 1546.5 45.7867C1544.59 39.1094 1542.39 32.5814 1540.49 27.7934C1539.61 25.3814 1538.69 23.432 1538.14 22.0467C1537.56 20.6707 1537.23 19.884 1537.23 19.884C1537.23 19.884 1537.37 20.7254 1537.61 22.1987C1537.83 23.6761 1538.27 25.7494 1538.57 28.2827C1539.3 33.3187 1539.91 40.0574 1540.2 46.7507C1540.4 53.464 1540.29 60.1227 1539.95 65.088C1539.84 67.568 1539.57 69.6321 1539.47 71.0694C1539.34 72.5067 1539.27 73.328 1539.27 73.328C1539.27 73.328 1539.17 74.1467 1538.99 75.58C1538.78 77.012 1538.61 79.0547 1538.18 81.4867C1537.7 84.7334 1536.96 88.6867 1536.05 92.812C1533 84.8334 1530.91 78.572 1530.91 78.572C1530.91 78.572 1526.56 65.7494 1523.22 52.4987C1519.82 39.2814 1517.49 25.7041 1517.49 25.7041C1517.49 25.7041 1516.64 39.432 1516.91 53.316C1517.11 67.1814 1518.44 81.124 1518.44 81.124C1518.44 81.124 1519.43 92.0494 1521.33 104.215C1521.22 104.061 1521.12 103.916 1521.01 103.763C1518.19 99.4107 1515.56 94.8547 1513.79 91.316C1512 87.7854 1510.91 85.3507 1510.91 85.3507C1510.91 85.3507 1509.83 82.932 1508.37 79.1947C1507.26 76.4147 1506.05 72.8734 1504.91 69.08C1504.95 68.2174 1504.99 67.3174 1505.03 66.34C1505.27 60.4294 1505.25 52.556 1504.92 44.7467C1504.49 36.9267 1503.75 29.1787 1502.95 23.412C1502.61 20.5254 1502.14 18.1387 1501.9 16.4654C1501.64 14.7961 1501.49 13.8414 1501.49 13.8414C1501.49 13.8414 1501.44 14.8081 1501.36 16.4974C1501.25 18.1867 1501.22 20.5907 1500.96 23.472C1500.57 29.2347 1499.71 36.872 1498.56 44.416C1497.31 51.9587 1495.77 59.3987 1494.38 64.9107C1493 70.424 1491.96 74.0467 1491.96 74.0467C1491.96 74.0467 1490.91 77.6827 1489.16 83.0427C1488.99 83.56 1488.78 84.1574 1488.6 84.7041C1488.28 82.8401 1488.08 81.7347 1488.08 81.7347C1488.08 81.7347 1486.05 70.7027 1482.81 60.1614C1479.63 49.5734 1475.29 39.5974 1475.29 39.5974C1475.29 39.5974 1476.54 50.4067 1476.51 61.0894C1476.54 69.8454 1475.75 78.4254 1475.45 81.2654C1474.04 73.6107 1473.09 67.9574 1473.09 67.9574C1473.09 67.9574 1470.73 54.056 1468.86 40.0214C1466.97 26 1465.58 11.86 1465.58 11.86C1465.58 11.86 1465.13 15.3814 1464.52 20.6774C1465.3 13.248 1465.98 8.0094 1465.98 8.0094C1465.98 8.0094 1460.85 22.9467 1456.57 38.24C1452.24 53.5054 1448.78 69.0854 1448.78 69.0854C1448.78 69.0854 1445.41 84.0534 1442.8 99.5574C1443.41 84.2267 1443.15 70.7107 1443.15 70.7107C1443.15 70.7107 1442.94 52.8387 1441.39 35.152C1439.96 17.4427 1437.22 3.05176e-05 1437.22 3.05176e-05C1437.22 3.05176e-05 1436.78 17.6587 1435.02 35.1147C1433.38 52.5947 1430.45 69.7934 1430.45 69.7934C1430.45 69.7934 1429.2 77.4147 1427.17 87.4627C1426.12 83.8507 1425.22 80.428 1424.55 77.5094C1423.85 74.8 1423.47 72.508 1423.11 70.9107C1422.78 69.3094 1422.59 68.3947 1422.59 68.3947C1422.59 68.3947 1422.43 67.4734 1422.16 65.8627C1421.91 64.2494 1421.42 61.9467 1421.08 59.1574C1420.25 53.588 1419.52 46.092 1419.13 38.5147C1418.86 30.9494 1418.93 23.312 1419.29 17.5827C1419.39 14.708 1419.69 12.336 1419.8 10.656C1419.94 8.97868 1420.02 8.02138 1420.02 8.02138C1420.02 8.02138 1419.75 8.94141 1419.26 10.5534C1418.81 12.1721 1418.02 14.4654 1417.32 17.2734C1415.78 22.864 1414.1 30.4361 1412.78 38.1321C1411.56 45.8294 1410.69 53.6401 1410.34 59.5347C1410.09 62.4827 1410.09 64.9414 1410 66.6707C1409.93 68.4001 1409.89 69.388 1409.89 69.388C1409.89 69.388 1409.89 70.3747 1409.88 72.1041C1409.91 73.8307 1409.8 76.3187 1409.93 79.288C1409.94 79.8694 1409.96 80.4854 1409.98 81.1041C1409.87 80.5174 1409.76 79.9041 1409.63 79.2374C1408.85 75.3321 1407.66 70.1801 1406.22 65.1334C1404.8 60.0814 1403.13 55.1427 1401.74 51.5041C1400.38 47.8587 1399.37 45.4867 1399.37 45.4867C1399.37 45.4867 1400.34 55.7774 1399.9 65.9067C1399.74 70.9707 1399.32 75.9827 1398.89 79.7107C1398.66 81.68 1398.44 83.2787 1398.28 84.364C1397.4 78.364 1396.81 74.3014 1396.81 74.3014L1387.92 13.8227L1384.77 63.784C1384.33 61.6827 1383.86 59.5174 1383.37 57.3574C1380.71 45.3587 1377.39 33.6054 1377.39 33.6054C1377.39 33.6054 1377.55 45.8134 1377.02 57.9267C1376.58 70.0494 1375.46 82.0467 1375.46 82.0467C1375.46 82.0467 1375.23 84.6214 1374.82 88.54C1372.22 80.5614 1370.51 73.8494 1370.51 73.8494C1370.51 73.8494 1367.61 62.6787 1365.9 51.0947C1364.12 39.5467 1363.61 27.6934 1363.61 27.6934C1363.61 27.6934 1360.94 39.2387 1359.53 51.172C1358.31 60.9987 1357.96 70.988 1357.88 74.1787C1357.87 73.1827 1357.85 72.22 1357.81 71.3427C1357.66 67.4227 1357.43 64.844 1357.43 64.844C1357.43 64.844 1356.58 54.4454 1354.01 44.62C1352.71 39.7027 1351.17 34.9227 1349.81 31.4294C1348.46 27.9321 1347.46 25.6734 1347.46 25.6734C1347.46 25.6734 1348.43 35.5707 1347.67 45.192C1347.27 50.0107 1346.63 54.7374 1345.95 58.2321C1345.27 61.7267 1344.72 64.0067 1344.72 64.0067C1344.72 64.0067 1342.68 72.5934 1339.26 80.772C1336.84 73.4547 1334.96 66.744 1334.96 66.744C1334.96 66.744 1332.53 58.1707 1330.61 49.3747C1328.65 40.6 1327.22 31.6267 1327.22 31.6267C1327.22 31.6267 1325.46 40.5307 1324.24 49.62C1322.99 58.6907 1322.28 67.9174 1322.28 67.9174C1322.28 67.9174 1322.24 68.3534 1322.19 69.0987C1321.31 66.2481 1320.81 64.456 1320.81 64.456C1320.81 64.456 1317.3 52.2454 1315.14 39.5507C1312.91 26.8934 1312.1 13.8814 1312.1 13.8814C1312.1 13.8814 1309.72 26.68 1308.78 39.8414C1307.76 52.9707 1308.21 66.32 1308.21 66.32C1308.21 66.32 1308.23 67.1494 1308.3 68.5987C1307.34 64.1147 1305.79 57.2014 1303.99 50.36C1301.01 38.8641 1297.35 27.6654 1297.35 27.6654C1297.35 27.6654 1297.88 39.4334 1297.67 51.108C1297.5 62.796 1296.62 74.3534 1296.62 74.3534C1296.62 74.3534 1295.78 85.9267 1294.23 97.3254C1294.18 97.704 1294.13 98.0814 1294.08 98.4587C1293.17 95.4014 1292.25 92.1054 1291.39 88.7707C1288.07 76.0961 1285.86 63.0334 1285.86 63.0334C1285.86 63.0334 1283.59 50.0014 1282.48 36.68C1281.29 23.384 1281.31 9.88538 1281.31 9.88538C1281.31 9.88538 1278.13 22.9934 1276.11 36.4707C1274.03 49.9174 1273.14 63.6427 1273.14 63.6427C1273.14 63.6427 1272.6 71.4187 1272.44 81.1854C1271.91 79.056 1271.6 77.756 1271.6 77.756C1271.6 77.756 1268.76 65.988 1266.75 53.9387C1264.7 41.9147 1263.49 29.6587 1263.49 29.6587C1263.49 29.6587 1261.51 41.8001 1260.39 54.1654C1259.22 66.5094 1258.93 79.0227 1258.93 79.0227C1258.93 79.0227 1258.87 80.9054 1258.84 83.928C1258.32 81.7947 1257.8 79.7681 1257.29 78.0307C1256.01 73.576 1255.03 70.6667 1255.03 70.6667C1255.03 70.6667 1254.06 67.7427 1252.42 63.4587C1250.8 59.168 1248.35 53.5801 1245.66 48.1694C1242.9 42.7814 1239.9 37.5787 1237.47 33.8134C1235.04 30.0414 1233.33 27.6187 1233.33 27.6187C1233.33 27.6187 1237.41 38.8027 1239.64 50.216C1240.75 55.932 1241.57 61.6347 1241.97 65.9214C1242.38 70.2054 1242.53 73.0454 1242.53 73.0454C1242.53 73.0454 1242.64 75.2987 1242.7 78.772L1227.08 43.524L1230.72 82.7027L1232.63 103.233C1232.38 102.664 1232.12 102.107 1231.87 101.532C1229.38 95.4681 1227.17 89.2214 1225.77 84.4387C1225 82.0614 1224.56 80.036 1224.15 78.6307C1223.77 77.2174 1223.55 76.4107 1223.55 76.4107C1223.55 76.4107 1223.37 75.5974 1223.05 74.1734C1222.75 72.7454 1222.2 70.7121 1221.77 68.2374C1220.76 63.3014 1219.79 56.632 1219.14 49.8614C1218.61 43.1014 1218.41 36.2507 1218.55 31.0987C1218.55 28.5147 1218.76 26.3787 1218.81 24.8654C1218.89 23.3561 1218.94 22.4921 1218.94 22.4921C1218.94 22.4921 1218.69 23.3214 1218.27 24.7734C1217.88 26.232 1217.18 28.2987 1216.58 30.8321C1215.24 35.8747 1213.84 42.7134 1212.78 49.672C1212.63 50.7094 1212.52 51.7427 1212.39 52.7787C1211.8 48.88 1211.06 44.6934 1210.1 40.5387C1208.31 33.0467 1206.13 25.7 1203.81 20.4547C1202.82 17.7827 1201.64 15.6894 1200.95 14.1907C1200.23 12.708 1199.81 11.86 1199.81 11.86C1199.81 11.86 1200.04 12.776 1200.44 14.3787C1200.8 15.9894 1201.5 18.2174 1201.9 21.0067C1203.04 26.4827 1203.6 33.9307 1203.77 41.2867C1203.9 48.668 1203.32 56.0227 1202.78 61.496C1202.15 66.98 1201.64 70.6027 1201.64 70.6027C1201.64 70.6027 1201.49 71.5107 1201.23 73.0987C1200.95 74.6841 1200.67 76.9454 1200.11 79.6494C1199.12 85.06 1197.54 92.228 1195.71 99.3147C1195.18 101.369 1194.62 103.408 1194.06 105.403L1196.17 82.7027L1199.81 43.524L1184.19 78.772C1184.24 75.2987 1184.36 73.0454 1184.36 73.0454C1184.36 73.0454 1184.51 70.2054 1184.92 65.9214C1185.31 61.6347 1186.14 55.932 1187.25 50.216C1189.48 38.8027 1193.56 27.6187 1193.56 27.6187C1193.56 27.6187 1191.85 30.0414 1189.42 33.8134C1186.98 37.5787 1183.99 42.7814 1181.23 48.1694C1178.54 53.5801 1176.09 59.168 1174.47 63.4587C1172.83 67.7427 1171.85 70.6667 1171.85 70.6667C1171.85 70.6667 1170.88 73.576 1169.6 78.0307C1169.09 79.7681 1168.57 81.7947 1168.05 83.928C1168.01 80.9054 1167.96 79.0227 1167.96 79.0227C1167.96 79.0227 1167.67 66.5094 1166.5 54.1654C1165.38 41.8001 1163.4 29.6587 1163.4 29.6587C1163.4 29.6587 1162.19 41.9147 1160.13 53.9387C1158.13 65.988 1155.29 77.756 1155.29 77.756C1155.29 77.756 1154.98 79.056 1154.45 81.1854C1154.29 71.4187 1153.75 63.6427 1153.75 63.6427C1153.75 63.6427 1152.86 49.9174 1150.77 36.4707C1148.76 22.9934 1145.58 9.88538 1145.58 9.88538C1145.58 9.88538 1145.59 23.384 1144.41 36.68C1143.3 50.0014 1141.03 63.0334 1141.03 63.0334C1141.03 63.0334 1138.82 76.0961 1135.5 88.7707C1134.64 92.1054 1133.71 95.4014 1132.81 98.4587C1132.76 98.0814 1132.7 97.704 1132.65 97.3254C1131.11 85.9267 1130.27 74.3534 1130.27 74.3534C1130.27 74.3534 1129.39 62.796 1129.22 51.108C1129.01 39.4334 1129.54 27.6654 1129.54 27.6654C1129.54 27.6654 1125.88 38.8641 1122.9 50.36C1121.1 57.2014 1119.55 64.1161 1118.59 68.5987C1118.65 67.1494 1118.68 66.32 1118.68 66.32C1118.68 66.32 1119.13 52.9707 1118.11 39.8414C1117.17 26.68 1114.79 13.8814 1114.79 13.8814C1114.79 13.8814 1113.98 26.8934 1111.75 39.5507C1109.59 52.2454 1106.08 64.456 1106.08 64.456C1106.08 64.456 1105.58 66.2481 1104.7 69.0987C1104.64 68.3534 1104.61 67.9174 1104.61 67.9174C1104.61 67.9174 1103.9 58.6907 1102.65 49.62C1101.43 40.5307 1099.67 31.6267 1099.67 31.6267C1099.67 31.6267 1098.24 40.6 1096.28 49.3747C1094.36 58.1707 1091.93 66.744 1091.93 66.744C1091.93 66.744 1090.05 73.4547 1087.63 80.772C1084.21 72.5934 1082.17 64.0067 1082.17 64.0067C1082.17 64.0067 1081.61 61.7267 1080.94 58.2321C1080.26 54.7374 1079.62 50.0107 1079.22 45.192C1078.45 35.5707 1079.43 25.6734 1079.43 25.6734C1079.43 25.6734 1078.42 27.9321 1077.08 31.4294C1075.71 34.9227 1074.17 39.7027 1072.88 44.62C1070.31 54.4454 1069.46 64.844 1069.46 64.844C1069.46 64.844 1069.23 67.4227 1069.08 71.3427C1069.04 72.22 1069.02 73.1827 1069.01 74.1787C1068.93 70.988 1068.58 60.9987 1067.35 51.172C1065.95 39.2387 1063.28 27.6934 1063.28 27.6934C1063.28 27.6934 1062.76 39.5467 1060.99 51.0947C1059.28 62.6787 1056.38 73.8494 1056.38 73.8494C1056.38 73.8494 1054.67 80.5614 1052.07 88.54C1051.66 84.6214 1051.43 82.0467 1051.43 82.0467C1051.43 82.0467 1050.31 70.0494 1049.86 57.9267C1049.33 45.8134 1049.5 33.6054 1049.5 33.6054C1049.5 33.6054 1046.18 45.3587 1043.52 57.3574C1043.03 59.5174 1042.56 61.6827 1042.11 63.7827L1038.97 13.8227L1030.08 74.3014C1030.08 74.3014 1029.49 78.364 1028.6 84.3627C1028.45 83.2787 1028.23 81.68 1028 79.7107C1027.57 75.9827 1027.15 70.9707 1026.98 65.9067C1026.55 55.7774 1027.52 45.4867 1027.52 45.4867C1027.52 45.4867 1026.51 47.8587 1025.15 51.5041C1023.76 55.1427 1022.08 60.0814 1020.66 65.1334C1019.23 70.1801 1018.03 75.3321 1017.26 79.2374C1017.13 79.9041 1017.02 80.5161 1016.91 81.1027C1016.93 80.4841 1016.94 79.8694 1016.95 79.288C1017.08 76.3187 1016.98 73.8307 1017 72.1041C1017 70.3747 1016.99 69.388 1016.99 69.388C1016.99 69.388 1016.96 68.4001 1016.89 66.6707C1016.8 64.9414 1016.8 62.4827 1016.55 59.5347C1016.2 53.6401 1015.33 45.8294 1014.11 38.1321C1012.78 30.4361 1011.11 22.864 1009.56 17.2734C1008.87 14.4654 1008.08 12.1721 1007.62 10.5534C1007.14 8.94141 1006.87 8.02138 1006.87 8.02138C1006.87 8.02138 1006.95 8.97868 1007.09 10.656C1007.2 12.336 1007.5 14.708 1007.6 17.5827C1007.96 23.312 1008.03 30.9494 1007.76 38.5147C1007.37 46.092 1006.64 53.588 1005.81 59.1574C1005.47 61.9467 1004.97 64.2494 1004.73 65.8627C1004.46 67.4734 1004.3 68.3947 1004.3 68.3947C1004.3 68.3947 1004.11 69.3094 1003.78 70.9107C1003.41 72.508 1003.04 74.8 1002.34 77.5094C1001.67 80.428 1000.76 83.8507 999.717 87.4614C997.687 77.4134 996.438 69.7934 996.438 69.7934C996.438 69.7934 993.507 52.5947 991.867 35.1147C990.11 17.6587 989.671 3.05176e-05 989.671 3.05176e-05C989.671 3.05176e-05 986.927 17.4427 985.498 35.152C983.95 52.8387 983.736 70.7107 983.736 70.7107C983.736 70.7107 983.482 84.2254 984.085 99.556C981.481 84.0534 978.103 69.0854 978.103 69.0854C978.103 69.0854 974.643 53.5054 970.315 38.24C966.036 22.9467 960.909 8.0094 960.909 8.0094C960.909 8.0094 961.585 13.2547 962.37 20.692C961.761 15.388 961.312 11.86 961.312 11.86C961.312 11.86 959.919 26 958.024 40.0214C956.158 54.056 953.797 67.9574 953.797 67.9574C953.797 67.9574 952.849 73.6094 951.433 81.264C951.142 78.424 950.347 69.8454 950.38 61.0894C950.343 50.4067 951.593 39.5974 951.593 39.5974C951.593 39.5974 947.257 49.5734 944.082 60.1614C940.837 70.7027 938.814 81.7347 938.814 81.7347C938.814 81.7347 938.603 82.8401 938.29 84.7041C938.106 84.1574 937.894 83.56 937.726 83.0427C935.973 77.6827 934.926 74.0467 934.926 74.0467C934.926 74.0467 933.884 70.424 932.507 64.9107C931.113 59.3987 929.58 51.9587 928.332 44.416C927.18 36.872 926.318 29.2347 925.932 23.472C925.671 20.5907 925.639 18.1867 925.53 16.4974C925.447 14.8081 925.4 13.8414 925.4 13.8414C925.4 13.8414 925.249 14.7961 924.984 16.4654C924.745 18.1387 924.28 20.5254 923.942 23.412C923.135 29.1787 922.4 36.9267 921.972 44.7467C921.639 52.556 921.615 60.4294 921.858 66.34C921.896 67.3174 921.935 68.2174 921.974 69.0787C920.837 72.872 919.623 76.4147 918.522 79.1947C917.059 82.932 915.977 85.3507 915.977 85.3507C915.977 85.3507 914.887 87.7854 913.102 91.316C911.331 94.8547 908.697 99.4107 905.875 103.763C905.771 103.915 905.666 104.061 905.562 104.213C907.458 92.0494 908.448 81.124 908.448 81.124C908.448 81.124 909.779 67.1814 909.982 53.316C910.252 39.432 909.402 25.7041 909.402 25.7041C909.402 25.7041 907.063 39.2814 903.667 52.4987C900.331 65.7494 895.977 78.572 895.977 78.572C895.977 78.572 893.884 84.8334 890.833 92.812C889.933 88.6867 889.183 84.7334 888.707 81.4867C888.28 79.0547 888.11 77.012 887.902 75.58C887.721 74.1467 887.618 73.328 887.618 73.328C887.618 73.328 887.545 72.5067 887.415 71.0694C887.314 69.6321 887.042 67.568 886.94 65.088C886.597 60.1227 886.485 53.464 886.683 46.7507C886.98 40.0574 887.591 33.3187 888.322 28.2827C888.619 25.7494 889.055 23.6761 889.274 22.1987C889.521 20.7254 889.661 19.884 889.661 19.884C889.661 19.884 889.329 20.6707 888.748 22.0467C888.195 23.432 887.276 25.3814 886.394 27.7934C884.495 32.5814 882.296 39.1094 880.39 45.7867C878.584 52.4747 877.076 59.3014 876.21 64.4827C875.709 67.068 875.479 69.244 875.231 70.7641C875.009 72.2894 874.882 73.16 874.882 73.16C874.882 73.16 874.786 74.0347 874.619 75.564C874.477 77.0947 874.151 79.288 873.987 81.9294C873.519 87.216 873.258 94.3094 873.333 101.467C873.403 104.384 873.533 107.303 873.706 110.111C873.658 109.94 873.612 109.771 873.566 109.599C870.464 98.176 867.842 86.5614 867.842 86.5614C867.842 86.5614 865.193 74.9641 863.036 63.1961C860.851 51.4427 859.167 39.5361 859.167 39.5361C859.167 39.5361 857.665 51.4561 856.676 63.5001C855.656 75.5307 855.155 87.6654 855.155 87.6654C855.155 87.6654 854.623 99.7894 854.616 111.995C854.608 114.74 854.627 117.481 854.659 120.092H854.146L853.2 78.7107L852.07 28.0067L840.529 77.428L832.936 110.049C833.08 108.776 833.224 107.496 833.36 106.211C834.861 92.412 835.73 78.6347 835.73 78.6347C835.73 78.6347 836.638 64.8494 836.92 51.1134C837.241 37.368 836.937 23.6961 836.937 23.6961C836.937 23.6961 834.066 37.084 830.611 50.2587C827.189 63.4534 823.195 76.412 823.195 76.412C823.195 76.412 819.233 89.3907 814.712 102.111C813.916 104.369 813.103 106.616 812.304 108.789C812.804 100.24 812.929 93.2734 812.929 93.2734C812.929 93.2734 813.179 81.7 812.694 70.24C812.254 58.7627 811.088 47.44 811.088 47.44C811.088 47.44 809.067 58.6587 806.356 69.6267C803.685 80.6174 800.347 91.3227 800.347 91.3227C800.347 91.3227 799.17 95.1414 797.389 100.42L794.61 86.5707L785.169 39.5334L781.899 87.376L780.957 101.167C776.525 94.3427 773.237 89.0587 773.237 89.0587C773.237 89.0587 766.297 77.9587 759.745 66.5614C753.173 55.1854 747 43.5227 747 43.5227C747 43.5227 750.19 56.2907 753.872 68.9907C757.523 81.6934 761.666 94.312 761.666 94.312Z" fill="#03624C"/>
</mask>
<g mask="url(#mask1_45_4)">
<rect x="840.199" width="603.766" height="134" fill="#03624C"/>
</g>
</svg>
