<svg viewBox="0 0 126 59" fill="none" xmlns="http://www.w3.org/2000/svg">
<path d="M119.816 44.2133H107.982V47L104.656 44.2133L101.017 41.1647L107.982 35.3298V38.1163H118.501C121.647 38.1163 123.608 34.7034 122.024 31.9849L124.451 36.111C126.559 39.6952 123.974 44.2133 119.816 44.2133Z" fill="#00DF82"/>
<path d="M88.7504 36.1095L94.7502 25.9093L92.3483 24.4967L96.4367 23.0422L100.91 21.451L102.407 30.4135L100.006 29.0006L94.6727 38.0667C93.0774 40.7789 95.0248 44.1998 98.1714 44.2121H93.3846C89.2263 44.2121 86.6422 39.6937 88.7504 36.1095Z" fill="#00DF82"/>
<path d="M119.615 22.5017L118.878 26.7779L118.073 31.4567L109.527 28.3693L111.935 26.9682L106.647 17.8761C105.065 15.1561 101.129 15.1766 99.5757 17.9132L101.922 13.7411C103.96 10.1166 109.165 10.0788 111.256 13.6734L117.206 23.9027L119.615 22.5017Z" fill="#00DF82"/>
<path d="M20.4658 47.48C17.8418 47.48 15.4258 47.064 13.2178 46.232C11.0418 45.368 9.13781 44.168 7.50581 42.632C5.87381 41.064 4.60981 39.224 3.71381 37.112C2.81781 35 2.36981 32.696 2.36981 30.2C2.36981 27.704 2.81781 25.4 3.71381 23.288C4.60981 21.176 5.87381 19.352 7.50581 17.816C9.16981 16.248 11.1058 15.048 13.3138 14.216C15.5218 13.352 17.9378 12.92 20.5618 12.92C23.4098 12.92 25.9698 13.384 28.2418 14.312C30.5458 15.24 32.4818 16.6 34.0498 18.392L30.1138 22.232C28.8018 20.92 27.3778 19.96 25.8418 19.352C24.3378 18.712 22.6738 18.392 20.8498 18.392C19.0898 18.392 17.4578 18.68 15.9538 19.256C14.4498 19.832 13.1538 20.648 12.0658 21.704C10.9778 22.76 10.1298 24.008 9.52181 25.448C8.94581 26.888 8.65781 28.472 8.65781 30.2C8.65781 31.896 8.94581 33.464 9.52181 34.904C10.1298 36.344 10.9778 37.608 12.0658 38.696C13.1538 39.752 14.4338 40.568 15.9058 41.144C17.3778 41.72 19.0098 42.008 20.8018 42.008C22.4658 42.008 24.0658 41.752 25.6018 41.24C27.1698 40.696 28.6578 39.8 30.0658 38.552L33.6178 43.208C31.8578 44.616 29.8098 45.688 27.4738 46.424C25.1698 47.128 22.8338 47.48 20.4658 47.48ZM27.7138 42.392V29.816H33.6178V43.208L27.7138 42.392ZM57.5919 47.48C54.9679 47.48 52.5519 47.048 50.3439 46.184C48.1359 45.32 46.2159 44.12 44.5839 42.584C42.9519 41.016 41.6879 39.192 40.7919 37.112C39.8959 35 39.4479 32.696 39.4479 30.2C39.4479 27.704 39.8959 25.416 40.7919 23.336C41.6879 21.224 42.9519 19.4 44.5839 17.864C46.2159 16.296 48.1359 15.08 50.3439 14.216C52.5519 13.352 54.9519 12.92 57.5439 12.92C60.1679 12.92 62.5679 13.352 64.7439 14.216C66.9519 15.08 68.8719 16.296 70.5039 17.864C72.1359 19.4 73.3999 21.224 74.2959 23.336C75.1919 25.416 75.6399 27.704 75.6399 30.2C75.6399 32.696 75.1919 35 74.2959 37.112C73.3999 39.224 72.1359 41.048 70.5039 42.584C68.8719 44.12 66.9519 45.32 64.7439 46.184C62.5679 47.048 60.1839 47.48 57.5919 47.48ZM57.5439 42.008C59.2399 42.008 60.8079 41.72 62.2479 41.144C63.6879 40.568 64.9359 39.752 65.9919 38.696C67.0479 37.608 67.8639 36.36 68.4399 34.952C69.0479 33.512 69.3519 31.928 69.3519 30.2C69.3519 28.472 69.0479 26.904 68.4399 25.496C67.8639 24.056 67.0479 22.808 65.9919 21.752C64.9359 20.664 63.6879 19.832 62.2479 19.256C60.8079 18.68 59.2399 18.392 57.5439 18.392C55.8479 18.392 54.2799 18.68 52.8399 19.256C51.4319 19.832 50.1839 20.664 49.0959 21.752C48.0399 22.808 47.2079 24.056 46.5999 25.496C46.0239 26.904 45.7359 28.472 45.7359 30.2C45.7359 31.896 46.0239 33.464 46.5999 34.904C47.2079 36.344 48.0399 37.608 49.0959 38.696C50.1519 39.752 51.3999 40.568 52.8399 41.144C54.2799 41.72 55.8479 42.008 57.5439 42.008Z" fill="#F1F7F7"/>
</svg>
