<svg width="492" height="125" viewBox="0 0 492 125" fill="none" xmlns="http://www.w3.org/2000/svg">
<path d="M21.9921 69.9998C9.84672 69.9998 0 79.8451 0 91.9905C0 104.136 9.84672 113.982 21.9921 113.982C34.1374 113.982 43.9827 104.136 43.9827 91.9905C43.9827 79.8451 34.1374 69.9998 21.9921 69.9998Z" fill="#00DF82"/>
<path d="M108.983 91.9905C108.983 79.8451 99.1373 69.9998 86.992 69.9998C74.8467 69.9998 65 79.8451 65 91.9905C65 104.136 74.8467 113.982 86.992 113.982C99.1373 113.982 108.983 104.136 108.983 91.9905Z" fill="#00DF82"/>
<path d="M151.992 69.9998C139.847 69.9998 130 79.8451 130 91.9905C130 104.136 139.847 113.982 151.992 113.982C164.137 113.982 173.983 104.136 173.983 91.9905C173.983 79.8451 164.137 69.9998 151.992 69.9998Z" fill="#00DF82"/>
<path d="M216.991 69.9999C204.845 69.9999 195 79.8452 195 91.9905C195 104.136 204.845 113.981 216.991 113.981C229.136 113.981 238.981 104.136 238.981 91.9905C238.981 79.8452 229.136 69.9999 216.991 69.9999Z" fill="#00DF82"/>
<path d="M465.98 23.5529L470.638 28.7303C472.717 31.0419 476.276 31.23 478.588 29.1505C480.899 27.071 481.087 23.5121 479.008 21.2005L465.443 6.12139C464.609 3.69152 462.191 2.06633 459.531 2.35055C458.246 2.48751 457.125 3.06181 456.259 3.88935L456.021 4.06459L439.305 19.1017C436.993 21.1812 436.805 24.7401 438.885 27.0518C440.963 29.3624 444.523 29.5515 446.835 27.472L454.902 20.2151C454.006 41.2208 444.713 61.286 428.897 75.5135C414.699 88.2866 396.374 95.4591 377.299 95.7084C374.19 95.7489 371.703 98.3016 371.744 101.411C371.762 102.831 372.305 104.122 373.186 105.101C374.233 106.265 375.758 106.988 377.446 106.966C399.251 106.681 420.197 98.4839 436.427 83.8837C453.783 68.2705 464.265 46.5074 465.98 23.5529Z" fill="#00DF82"/>
</svg>
